# xmcd
#
# Track frame offsets: 
#        150
#        9977
#        31531
#        46229
#        67280
#        88602
#        100150
#        123712
#        137494
#        158047
#        171519
#        185240
#        196176
#        213776
#        236157
#        253829
#        273069
#        291512
#
# Disc length: 4205 seconds
#
# Revision: 0
# Processed by: cddbd v1.5.2PL0 Copyright (c) Steve Scherf et al.
# Submitted via: ExactAudioCopy v0.95a4
#
DISCID=05106b12
DTITLE=Joe Purdy - Gordys Mix
DYEAR=1900
DGENRE=Folk
TTITLE0=Wash Away
TTITLE1=Skinny Dippin Girl
TTITLE2=Whiskey and Fish
TTITLE3=I Love the rain most
TTITLE4=The City
TTITLE5=Cinderella and the A Train
TTITLE6=Andrea
TTITLE7=You Dont Like Me Anyway
TTITLE8=Faketown
TTITLE9=Catarina
TTITLE10=Woman Go
TTITLE11=In My Arms Again
TTITLE12=Worn Out Shoes
TTITLE13=Blue In The Sky
TTITLE14=Cant Get It Right Today
TTITLE15=Thinking about leaving town
TTITLE16=Why Do I
TTITLE17=Green Eyes Are Better than Blue
EXTD=
EXTT0=
EXTT1=
EXTT2=
EXTT3=
EXTT4=
EXTT5=
EXTT6=
EXTT7=
EXTT8=
EXTT9=
EXTT10=
EXTT11=
EXTT12=
EXTT13=
EXTT14=
EXTT15=
EXTT16=
EXTT17=
PLAYORDER=
